<svg width="20" height="20" viewBox="0 0 20 20" fill="none" xmlns="http://www.w3.org/2000/svg">
<g clip-path="url(#clip0_174_222)">
<path d="M5.59945 13.9411C5.86597 13.9411 6.11972 13.9174 6.35831 13.8639C6.60066 13.8114 6.81511 13.7271 6.99691 13.6031C7.17773 13.4838 7.32827 13.32 7.43714 13.1127C7.54652 12.9063 7.59906 12.6383 7.59906 12.315C7.59906 11.6811 7.42011 11.2305 7.06554 10.9573C6.70956 10.6875 6.2357 10.5536 5.65296 10.5536H2.708V13.9411H5.59945ZM5.44941 8.70449C5.92894 8.70449 6.32659 8.59086 6.6414 8.35984C6.95288 8.13215 7.10339 7.75676 7.10339 7.24078C7.10339 6.95484 7.0537 6.71817 6.95288 6.53449C6.84824 6.35082 6.70956 6.20738 6.53534 6.10652C6.3621 6.00191 6.16609 5.92996 5.93937 5.89066C5.71589 5.84711 5.48253 5.83008 5.24253 5.83008H2.708V8.70449H5.44941ZM5.79972 3.73438C6.38812 3.73438 6.91925 3.78504 7.40449 3.89063C7.88734 3.99285 8.2987 4.16375 8.64714 4.39809C8.98988 4.63242 9.25828 4.94391 9.45046 5.33633C9.63745 5.72309 9.73167 6.20738 9.73167 6.77969C9.73167 7.39887 9.59152 7.91629 9.30988 8.33004C9.02679 8.74281 8.61066 9.08129 8.05538 9.34449C8.8114 9.56227 9.37285 9.94524 9.74445 10.4901C10.118 11.0388 10.3011 11.6949 10.3011 12.4646C10.3011 13.0885 10.1819 13.6254 9.94281 14.0774C9.70183 14.5347 9.37378 14.9054 8.96949 15.1913C8.56191 15.4796 8.09468 15.6917 7.57019 15.8295C7.05183 15.9667 6.51359 16.0363 5.96159 16.0363H-0.000244141V3.73438H5.79972Z" fill="#E8E8E8"/>
<path d="M16.9732 9.2207C16.682 8.89926 16.1902 8.72508 15.5895 8.72508C15.1984 8.72508 14.8751 8.79086 14.6157 8.92484C14.362 9.05738 14.1546 9.22164 13.996 9.41574C13.8379 9.61266 13.7309 9.82098 13.668 10.0434C13.6055 10.2603 13.5676 10.4567 13.5567 10.6305H17.537C17.4788 10.0065 17.2652 9.54496 16.9732 9.2207ZM14.1617 13.9011C14.5286 14.259 15.0583 14.4389 15.7447 14.4389C16.238 14.4389 16.664 14.3144 17.0219 14.0654C17.3765 13.8168 17.5924 13.5512 17.6757 13.2757H19.8305C19.484 14.348 18.959 15.1134 18.2418 15.5745C17.5332 16.037 16.6697 16.2675 15.6628 16.2675C14.9613 16.2675 14.3298 16.1539 13.7627 15.9305C13.196 15.7037 12.7226 15.3866 12.324 14.9724C11.9358 14.5567 11.6343 14.0654 11.4194 13.4883C11.2068 12.9141 11.0999 12.2783 11.0999 11.5895C11.0999 10.9235 11.2111 10.3014 11.4288 9.72629C11.6504 9.14922 11.9581 8.65121 12.3619 8.23371C12.7666 7.81379 13.2462 7.48242 13.8048 7.24004C14.3638 6.9991 14.9802 6.87793 15.6628 6.87793C16.4165 6.87793 17.0759 7.02277 17.642 7.31816C18.2054 7.60977 18.6679 8.00457 19.031 8.49879C19.3936 8.99207 19.6525 9.55633 19.814 10.1893C19.974 10.8212 20.0303 11.4811 19.9844 12.1723H13.5567C13.5567 12.8767 13.7944 13.5432 14.1617 13.9011Z" fill="#E8E8E8"/>
<path d="M18.0428 4.55957H13.0562V5.77332H18.0428V4.55957Z" fill="#E8E8E8"/>
</g>
<defs>
<clipPath id="clip0_174_222">
<rect width="20" height="20" fill="white"/>
</clipPath>
</defs>
</svg>
