<svg width="20" height="20" viewBox="0 0 20 20" fill="none" xmlns="http://www.w3.org/2000/svg">
<path d="M2.00517 7.25965H5.52122V17.8406H2.00517V7.25965ZM3.78673 2.15918C2.58333 2.15918 1.79712 2.94922 1.79712 3.98617C1.79712 5.0018 2.56032 5.8148 3.74071 5.8148H3.76313C4.98954 5.8148 5.75329 5.00176 5.75329 3.98617C5.73028 2.94922 4.98958 2.15918 3.78673 2.15918ZM14.1541 7.01109C12.2877 7.01109 11.4516 8.03765 10.9852 8.75758V7.25965H7.46806C7.51462 8.25226 7.46806 17.8406 7.46806 17.8406H10.9852V11.9314C10.9852 11.615 11.0082 11.2996 11.1007 11.0729C11.3554 10.4411 11.934 9.78687 12.9047 9.78687C14.1782 9.78687 14.6868 10.7576 14.6868 12.1794V17.8405H18.2034V11.7732C18.2034 8.52328 16.4689 7.01109 14.1541 7.01109Z" fill="#8D0949"/>
</svg>
